<?xml version="1.0" encoding="utf-8"?>
<!-- Generator: Adobe Illustrator 18.1.1, SVG Export Plug-In . SVG Version: 6.00 Build 0)  -->
<!DOCTYPE svg PUBLIC "-//W3C//DTD SVG 1.1//EN" "http://www.w3.org/Graphics/SVG/1.1/DTD/svg11.dtd">
<svg version="1.1" id="Layer_1" xmlns="http://www.w3.org/2000/svg" xmlns:xlink="http://www.w3.org/1999/xlink" x="0px" y="0px"
	 viewBox="-640.5 388.5 24 24" enable-background="new -640.5 388.5 24 24" xml:space="preserve">
<circle fill="#FFFFFF" cx="-628.5" cy="400.5" r="12"/>
<path fill="#666666" d="M-623.2,401.6C-623.2,401.7-623.2,401.7-623.2,401.6C-623.2,401.7-623.2,401.7-623.2,401.6
	c-0.3,1.3-1,2.4-1.9,3.2c-1,0.8-2.1,1.2-3.4,1.2c-0.7,0-1.4-0.1-2-0.4s-1.2-0.6-1.7-1.1l-0.9,0.9c-0.1,0.1-0.2,0.1-0.3,0.1
	c-0.1,0-0.2,0-0.3-0.1c0,0-0.1-0.1-0.1-0.1s0-0.1,0-0.2v-3.2c0-0.1,0-0.2,0.1-0.3s0.2-0.1,0.3-0.1h3.2c0.1,0,0.2,0,0.3,0.1
	c0.1,0.1,0.1,0.2,0.1,0.3c0,0.1,0,0.1,0,0.2s-0.1,0.1-0.1,0.1l-1,1c0.3,0.3,0.7,0.6,1.2,0.7c0.4,0.2,0.9,0.3,1.3,0.3
	c0.6,0,1.2-0.2,1.8-0.5c0.6-0.3,1-0.7,1.3-1.3c0,0,0.1-0.1,0.1-0.3s0.1-0.3,0.2-0.6c0-0.1,0-0.1,0.1-0.1c0,0,0.1,0,0.1,0h1.4
	c0.1,0,0.1,0,0.2,0.1C-623.2,401.5-623.2,401.6-623.2,401.6z M-623,395.9v3.2c0,0.1,0,0.2-0.1,0.3c-0.1,0.1-0.2,0.1-0.3,0.1h-3.2
	c-0.1,0-0.2,0-0.3-0.1c-0.1-0.1-0.1-0.2-0.1-0.3c0-0.1,0-0.1,0-0.2c0-0.1,0.1-0.1,0.1-0.1l1-1c-0.4-0.3-0.7-0.6-1.2-0.7
	c-0.4-0.2-0.9-0.2-1.3-0.2c-0.6,0-1.2,0.2-1.8,0.5c-0.6,0.3-1,0.7-1.3,1.3c0,0-0.1,0.1-0.1,0.3c-0.1,0.1-0.1,0.3-0.2,0.6
	c0,0.1,0,0.1-0.1,0.1c0,0-0.1,0-0.1,0h-1.4c-0.1,0-0.1,0-0.2-0.1c0,0-0.1-0.1-0.1-0.2v-0.1c0.3-1.3,1-2.3,1.9-3.1
	c1-0.8,2.1-1.2,3.4-1.2c0.7,0,1.4,0.1,2,0.4c0.7,0.3,1.2,0.6,1.8,1.1l0.9-0.9c0.1-0.1,0.2-0.1,0.3-0.1s0.2,0,0.3,0.1
	c0,0,0.1,0.1,0.1,0.1C-623,395.8-623,395.9-623,395.9z"/>
</svg>
